<?xml version="1.0" standalone="no"?><!DOCTYPE svg PUBLIC "-//W3C//DTD SVG 1.1//EN" "http://www.w3.org/Graphics/SVG/1.1/DTD/svg11.dtd"><svg t="1582857170983" class="icon" viewBox="0 0 1124 1024" version="1.1" xmlns="http://www.w3.org/2000/svg" p-id="14867" xmlns:xlink="http://www.w3.org/1999/xlink" width="219.53125" height="200"><defs><style type="text/css"></style></defs><path d="M996.144962 0.167869H125.711388C57.064219 0.246208 1.432481 55.469464 1.365333 123.607432v555.494819c0.072743 68.149158 55.698885 123.372415 124.346055 123.439563h204.732852l208.504306 206.993487a31.195628 31.195628 0 0 0 21.979629 9.036939 31.195628 31.195628 0 0 0 21.979628-9.036939l208.504306-206.987891h204.732853c68.641574-0.072743 124.267716-55.296 124.346054-123.439563V123.607432C1120.412678 55.469464 1064.786536 0.246208 996.144962 0.167869z m40.411628 679.012721c-0.039169 32.851934-26.635191 59.475934-59.459147 59.509508H769.007213c-7.889836 0-15.443934 3.133552-21.01718 8.717989l-187.061858 187.229727-187.061858-187.240918a29.696 29.696 0 0 0-21.022776-8.717989H144.758907c-32.818361-0.033574-59.425574-26.657574-59.453552-59.509508v-535.557596c0.033574-32.846339 26.635191-59.470339 59.453552-59.509508h832.344131c32.823956 0.039169 59.425574 26.663169 59.459148 59.515104v535.563191z" fill="#666666" p-id="14868"></path><path d="M249.453115 402.840481c0 33.993443 27.552874 61.551913 61.551912 61.551912 33.987847 0 61.551913-27.55847 61.551913-61.551912 0-33.999038-27.564066-61.551913-61.551913-61.551913-33.999038 0-61.551913 27.552874-61.551912 61.551913zM497.535301 402.840481a61.551913 61.551913 0 1 0 123.103825 0c0-33.999038-27.55847-61.551913-61.551913-61.551913s-61.551913 27.552874-61.551912 61.551913zM745.617486 402.840481c0 33.993443 27.564066 61.551913 61.551913 61.551912 33.999038 0 61.551913-27.55847 61.551912-61.551912 0-33.999038-27.552874-61.551913-61.551912-61.551913-33.987847 0-61.551913 27.552874-61.551913 61.551913z" fill="#666666" p-id="14869"></path></svg>