<?xml version="1.0" standalone="no"?><!DOCTYPE svg PUBLIC "-//W3C//DTD SVG 1.1//EN" "http://www.w3.org/Graphics/SVG/1.1/DTD/svg11.dtd"><svg t="1582857182951" class="icon" viewBox="0 0 1149 1024" version="1.1" xmlns="http://www.w3.org/2000/svg" p-id="14997" xmlns:xlink="http://www.w3.org/1999/xlink" width="224.4140625" height="200"><defs><style type="text/css"></style></defs><path d="M1006.00185 0h-862.016651C64.414431 0 0 63.46716 0 141.143386v563.626272C0 782.445883 48.310823 852.543941 127.881591 852.543941H426.27197l148.721555 170.508788 148.721554-170.508788h298.390379c79.570768 0 127.881591-71.045328 127.881591-148.721554V140.196115c0-76.728955-64.414431-140.196115-143.985199-140.196115z m-729.398705 502.053654c-35.049029 0-63.46716-28.418131-63.46716-64.414431 0-35.049029 28.418131-64.414431 63.46716-64.414431s63.46716 28.418131 63.46716 64.414431c0.947271 35.9963-28.418131 64.414431-63.46716 64.414431z m298.39038 0C539.944496 502.053654 511.526364 473.635523 511.526364 438.586494s28.418131-64.414431 63.467161-64.414431 63.46716 28.418131 63.46716 64.414431c0 35.049029-28.418131 63.46716-63.46716 63.46716z m298.390379 0c-35.049029 0-63.46716-28.418131-63.46716-64.414431 0-35.049029 28.418131-64.414431 63.46716-64.414431s63.46716 28.418131 63.46716 64.414431-28.418131 64.414431-63.46716 64.414431z" p-id="14998" fill="#ffd000"></path></svg>