<?xml version="1.0" standalone="no"?><!DOCTYPE svg PUBLIC "-//W3C//DTD SVG 1.1//EN" "http://www.w3.org/Graphics/SVG/1.1/DTD/svg11.dtd"><svg t="1582856655725" class="icon" viewBox="0 0 1024 1024" version="1.1" xmlns="http://www.w3.org/2000/svg" p-id="5373" xmlns:xlink="http://www.w3.org/1999/xlink" width="200" height="200"><defs><style type="text/css"></style></defs><path d="M884.053333 401.066667c-42.666667-30.72-110.933333-44.373333-110.933333-44.373334-13.653333-18.773333-22.186667-30.72-42.666667-44.373333-29.013333-17.066667-47.786667-10.24-47.786666 6.826667-1.706667 13.653333 10.24 13.653333 32.426666 17.066666 22.186667 1.706667 29.013333 17.066667 29.013334 17.066667-40.96-11.946667-95.573333-11.946667-98.986667 17.066667-1.706667 25.6 42.666667 22.186667 66.56 18.773333 23.893333-1.706667 18.773333 17.066667 13.653333 23.893333-5.12 5.12-25.6 11.946667-73.386666 0-49.493333-10.24-98.986667-22.186667-175.786667-25.6-78.506667-5.12-155.306667 30.72-209.92 35.84-54.613333 5.12-116.053333-18.773333-116.053333-18.773333-30.72-10.24-22.186667 11.946667-17.066667 17.066667 88.746667 78.506667 223.573333 71.68 223.573333 71.68-18.773333 56.32 6.826667 85.333333 6.826667 85.333333 22.186667-17.066667 47.786667-25.6 47.786667-25.6-59.733333 40.96-122.88 114.346667-52.906667 116.053333 71.68 5.12 163.84 95.573333 163.84 95.573334s18.773333 1.706667 10.24-47.786667c-6.826667-49.493333-78.506667-54.613333-78.506667-54.613333 13.653333 0 66.56-11.946667 102.4-22.186667 35.84-11.946667 73.386667-40.96 78.506667-44.373333 5.12-5.12 10.24-11.946667 0-22.186667s-5.12-13.653333 6.826667-29.013333c11.946667-13.653333 76.8-56.32 139.946666-80.213334 64.853333-25.6 71.68-6.826667 104.106667-18.773333 30.72-20.48-1.706667-44.373333-1.706667-44.373333z" fill="#FFAD29" p-id="5374"></path><path d="M512 1024C230.4 1024 0 793.6 0 512S230.4 0 512 0s512 230.4 512 512-230.4 512-512 512z m0-989.866667C249.173333 34.133333 34.133333 249.173333 34.133333 512s215.04 477.866667 477.866667 477.866667 477.866667-215.04 477.866667-477.866667S774.826667 34.133333 512 34.133333z" fill="#FFAD29" p-id="5375"></path></svg>