<?xml version="1.0" standalone="no"?><!DOCTYPE svg PUBLIC "-//W3C//DTD SVG 1.1//EN" "http://www.w3.org/Graphics/SVG/1.1/DTD/svg11.dtd"><svg t="1582857327581" class="icon" viewBox="0 0 1024 1024" version="1.1" xmlns="http://www.w3.org/2000/svg" p-id="16091" xmlns:xlink="http://www.w3.org/1999/xlink" width="200" height="200"><defs><style type="text/css"></style></defs><path d="M848.896 861.184H189.44c-16.896 0-34.304-8.704-45.056-21.504l-1.024-1.024c-11.264-15.36-14.336-33.28-10.24-49.664 34.816-177.664 181.76-312.32 356.864-326.656 4.096-1.024 7.68-1.536 11.264-1.536h32.256l-4.096 42.496H512c-6.656 0-10.24 0-15.36 1.536h-2.56c-157.696 11.264-290.304 132.096-321.024 293.376-1.024 4.096-1.024 10.24 3.584 14.336l1.024 1.536c2.56 3.584 6.656 5.12 11.776 5.12h660.48c5.12 0 9.216-1.536 11.776-5.12 4.096-5.12 5.12-10.24 4.096-16.384-19.456-105.984-83.456-195.584-174.08-246.784l-1.024-1.024c-6.656-4.096-15.36-8.704-23.04-12.8-2.56-1.536-5.12-2.56-7.68-4.096l-11.776-5.12 16.896-38.4 11.776 5.12c8.704 3.584 16.896 8.704 24.576 11.776l10.24 5.12c102.4 57.856 173.056 158.72 196.096 276.48 4.096 16.896 0 34.816-12.8 50.176-10.752 15.36-28.672 23.04-46.08 23.04z" fill="#7A7E83" p-id="16092"></path><path d="M523.776 495.616c-107.52 0-196.096-88.576-196.096-196.096s88.576-196.096 196.096-196.096 196.096 88.576 196.096 196.096-89.088 196.096-196.096 196.096z m0-361.472c-92.16 0-165.376 74.24-165.376 165.376s74.24 165.376 165.376 165.376 165.376-74.24 165.376-165.376-73.728-165.376-165.376-165.376z" fill="#7A7E83" p-id="16093"></path><path d="M523.776 500.224c-111.104 0-200.704-89.6-200.704-200.704s89.6-200.704 200.704-200.704 200.704 89.6 200.704 200.704-90.624 200.704-200.704 200.704z m0-392.704c-105.984 0-192 86.016-192 192S418.304 491.52 523.776 491.52s192-86.016 192-192S629.76 107.52 523.776 107.52z m0 361.984c-93.696 0-169.984-75.776-169.984-169.984S430.08 129.536 523.776 129.536s169.984 75.776 169.984 169.984-76.8 169.984-169.984 169.984z m0-331.264C435.2 138.24 362.496 210.944 362.496 299.52S435.2 460.8 523.776 460.8s161.28-72.704 161.28-161.28S612.864 138.24 523.776 138.24z" fill="#7A7E83" p-id="16094"></path></svg>