<?xml version="1.0" standalone="no"?><!DOCTYPE svg PUBLIC "-//W3C//DTD SVG 1.1//EN" "http://www.w3.org/Graphics/SVG/1.1/DTD/svg11.dtd"><svg t="1582856929512" class="icon" viewBox="0 0 1024 1024" version="1.1" xmlns="http://www.w3.org/2000/svg" p-id="8895" xmlns:xlink="http://www.w3.org/1999/xlink" width="200" height="200"><defs><style type="text/css"></style></defs><path d="M805.632 42.666667C855.338667 42.666667 896 84.906667 896 136.533333v750.933334c0 51.626667-40.661333 93.866667-90.368 93.866666H218.368C168.661333 981.333333 128 939.093333 128 887.466667V136.533333C128 84.906667 168.661333 42.666667 218.368 42.666667h587.264z m-343.637333 534.869333l-90.453334-90.538667a42.666667 42.666667 0 0 0-60.373333 60.330667l120.661333 120.704a42.538667 42.538667 0 0 0 60.373334 0l211.2-211.2a42.666667 42.666667 0 1 0-60.373334-60.330667l-181.034666 181.034667z" p-id="8896" fill="#ffd000"></path></svg>