<?xml version="1.0" standalone="no"?><!DOCTYPE svg PUBLIC "-//W3C//DTD SVG 1.1//EN" "http://www.w3.org/Graphics/SVG/1.1/DTD/svg11.dtd"><svg t="1582859324574" class="icon" viewBox="0 0 1024 1024" version="1.1" xmlns="http://www.w3.org/2000/svg" p-id="16839" xmlns:xlink="http://www.w3.org/1999/xlink" width="200" height="200"><defs><style type="text/css"></style></defs><path d="M419.00884 1020.708278c-16.321457 0-29.625502-13.4412-29.625502-29.899813s13.304045-29.762657 29.625502-29.762657h326.566301c66.520225 0 98.477364-36.757568 113.70158-67.617466 0.54862-1.371551 0.822931-2.743102 0.960086-4.114653v-0.685776c3.154567-15.909992 8.503616-42.655237 42.655237-84.350388 22.630592-27.705331 18.515939-57.879454 13.852665-92.854005v-0.27431c-1.508706-11.246718-2.880257-22.904902-3.703187-34.425931-2.880257-49.512992 9.738012-70.909188 27.019555-100.397536l0.54862-0.82293c3.017412-4.937584 6.583445-10.698098 10.149478-17.144388 14.949906-26.196625 13.989821-58.702384-2.331637-87.093491-20.1618-34.974551-58.016609-55.822127-101.357621-55.822127-46.632735 0-107.392446 0.960086-170.895259 2.743102-1.508706 0-2.605947 0.137155-2.880257 0.137156h-1.508706c-8.640771 0-16.595767-3.840343-21.944816-10.560943-5.897669-6.7206-8.229306-15.772837-6.583445-24.687919v-0.27431c3.154567-17.418698 30.448433-171.992499 30.448433-241.530137 0-23.453523-7.26922-78.178409-74.749532-78.178409-34.974551 0-63.365658 38.952049-63.365657 86.682026 0 64.600054 0 86.27056-33.603001 133.726225-45.672649 64.600054-132.080364 172.81543-198.737744 172.81543h-35.111706v534.630592c0 7.817841-3.154567 15.498527-8.640772 21.121886-5.623359 5.623359-13.029735 8.777927-20.984731 8.777927H100.534691c-53.627645 0-97.242968-44.026788-97.242969-98.065899V494.581302c0-54.039111 43.615323-98.065899 97.242969-98.065899h202.852397c26.196625 0 90.933833-63.502813 150.459148-147.716046 20.573265-29.076882 22.630592-32.094294 22.630592-99.163139 0-82.018752 53.7648-146.344495 122.616662-146.344496 61.719796 0 133.726226 36.071792 133.726226 137.840879 0 59.66247-17.144388 168.837932-25.099384 216.430753 46.22127-1.097241 93.128315-1.783016 139.349585-1.920172 64.874364 0 121.930887 31.957139 152.790785 85.584785 26.8824 46.907045 27.842486 101.631931 2.605947 146.48165-3.428878 6.17198-7.132065 12.343959-10.835253 18.241629-16.184302 27.293866-21.121886 35.523172-19.201715 67.206 0.685776 9.463702 1.920171 18.927404 3.154568 28.939727l0.137155 1.371551c5.486204 40.3236 12.206804 90.659523-26.882401 138.526654-24.825074 30.448433-27.979641 47.181355-30.174122 58.290919l-0.137155 0.960086c-1.097241 5.623359-2.331637 11.383874-5.486204 17.555853-32.231449 65.560139-91.756764 101.769087-167.329226 101.769086H419.00884zM100.534691 456.177873c-20.984731 0-37.991964 17.281543-37.991964 38.403429v428.198232c0 21.121886 17.007233 38.403429 37.991964 38.403429h108.489686V456.177873H100.534691z" fill="" p-id="16840"></path></svg>