<?xml version="1.0" standalone="no"?><!DOCTYPE svg PUBLIC "-//W3C//DTD SVG 1.1//EN" "http://www.w3.org/Graphics/SVG/1.1/DTD/svg11.dtd"><svg t="1582859335250" class="icon" viewBox="0 0 1024 1024" version="1.1" xmlns="http://www.w3.org/2000/svg" p-id="16971" xmlns:xlink="http://www.w3.org/1999/xlink" width="200" height="200"><defs><style type="text/css"></style></defs><path d="M2.693 573.19l67.261 237.878c74.124 210.049 143.373 210.636 143.373 210.636h72.429v-659.151h-72.429c-116.329 0-210.634 94.305-210.634 210.636z" p-id="16972" fill="#ffd000"></path><path d="M988.849 568.532c-7.095-9.383-9.591-21.933-5.191-32.842 23.699-58.78-8.173-115.851-26.876-142.131-6.794-9.546-17.729-15.057-29.443-15.057h-251.047c-23.962 0-41.325-22.845-34.912-45.931l27.109-97.593c67.177-237.516-113.612-236.813-149.443-234.428-3.839 0.257-7.645 1.072-11.237 2.451-98.274 37.701-54.604 107.1-54.604 109.715 37.101 162.831-60.068 223.365-105.567 242.337-13.434 5.6-22.012 18.726-22.012 33.283v597.132c0 20.013 16.13 36.235 36.142 36.235 99.084-0.002 370.865-0.010 419.001-0.051 4.928-0.003 9.889-1.003 14.427-2.922 81.484-34.481 96.729-80.471 97.346-107.099 0.315-13.635 9.505-25.439 21.788-31.363 75.929-36.631 78.953-109.971 77.728-138.403-0.319-7.437 1.855-14.751 5.722-21.113 44.802-73.684 11.123-125.699-8.928-152.221z" p-id="16973" fill="#ffd000"></path></svg>